<?xml version="1.0" encoding="utf-8"?>
<!-- Generator: Adobe Illustrator 24.3.0, SVG Export Plug-In . SVG Version: 6.00 Build 0)  -->
<svg version="1.1" id="Layer_2" xmlns="http://www.w3.org/2000/svg" xmlns:xlink="http://www.w3.org/1999/xlink" x="0px" y="0px"
	 viewBox="0 0 70 91" style="enable-background:new 0 0 70 91;" xml:space="preserve">
<style type="text/css">
	.st0{fill:#2A3159;}
</style>
<g>
	<g>
		<path class="st0" d="M21.86,23.93c3.41,3.37,6.81,6.73,10.22,10.1c2.41,2.38,4.81,4.75,7.22,7.13c0.84,0.83,1.71,1.97,2.68,2.65
			c0.49,0.34,1.06,1.58,1.01,0.37c-0.05-1.14-0.39-0.05-0.97,0.38c-0.87,0.64-1.63,1.67-2.38,2.43c-2.34,2.39-4.69,4.78-7.03,7.18
			c-3.48,3.55-6.95,7.09-10.43,10.64c-2.3,2.35,1.3,5.96,3.61,3.61c3.94-4.02,7.87-8.04,11.81-12.05c2.43-2.48,4.87-4.96,7.3-7.45
			c1.3-1.33,2.94-2.69,2.96-4.74c0.02-2.02-1.7-3.42-3-4.7c-2.35-2.32-4.7-4.64-7.05-6.97c-4.11-4.06-8.22-8.12-12.33-12.18
			C23.13,18.02,19.52,21.62,21.86,23.93L21.86,23.93z"/>
	</g>
</g>
</svg>
