<?xml version="1.0" encoding="utf-8"?>
<!-- Generator: Adobe Illustrator 24.3.0, SVG Export Plug-In . SVG Version: 6.00 Build 0)  -->
<svg version="1.1" id="Layer_2" xmlns="http://www.w3.org/2000/svg" xmlns:xlink="http://www.w3.org/1999/xlink" x="0px" y="0px"
	 viewBox="0 0 70 91" style="enable-background:new 0 0 70 91;" xml:space="preserve">
<style type="text/css">
	.st0{fill:#2A3159;}
</style>
<g>
	<g>
		<path class="st0" d="M46.91,64.79c-3.36-3.42-6.72-6.83-10.07-10.25c-2.37-2.41-4.74-4.82-7.11-7.23
			c-0.83-0.85-1.68-1.98-2.64-2.69c-0.57-0.42-0.93-1.53-0.97-0.38c-0.04,1.21,0.5-0.01,1-0.37c0.88-0.62,1.66-1.64,2.41-2.39
			c2.38-2.36,4.76-4.72,7.14-7.07c3.53-3.5,7.05-6.99,10.58-10.49c2.34-2.32-1.27-5.92-3.61-3.61c-3.99,3.96-7.99,7.92-11.98,11.88
			c-2.47,2.45-4.94,4.89-7.4,7.34c-1.32,1.31-2.97,2.64-3,4.71c-0.03,2.01,1.69,3.44,2.96,4.73c2.32,2.36,4.63,4.71,6.95,7.07
			c4.05,4.12,8.1,8.24,12.15,12.36C45.61,70.74,49.22,67.14,46.91,64.79L46.91,64.79z"/>
	</g>
</g>
</svg>
