<svg id="calendar" xmlns="http://www.w3.org/2000/svg" viewBox="0 0 797.06 812.92"><defs><style>.cls-1{fill:#72c1b2;}.cls-2{fill:#dfebef;}.cls-10,.cls-2,.cls-8{stroke:#2a3159;stroke-miterlimit:10;}.cls-2,.cls-8{stroke-width:2.13px;}.cls-3{fill:#cfe1e2;}.cls-4{fill:#fff;}.cls-5{fill:#dee0df;}.cls-6{fill:#efefef;}.cls-7{fill:#e3e5e4;}.cls-8{fill:#506987;}.cls-9{fill:#4f5f77;}.cls-10{fill:#e6e9ed;stroke-width:2.83px;}.cls-11{fill:#c4c4c4;}</style></defs><g id="Layer_16" data-name="Layer 16"><path class="cls-1" d="M28.06,65.92h754a15,15,0,0,1,15,15v712a20,20,0,0,1-20,20h-749a15,15,0,0,1-15-15v-717A15,15,0,0,1,28.06,65.92Z"/></g><g id="Layer_2" data-name="Layer 2"><rect class="cls-2" x="1.06" y="55.92" width="786" height="747" rx="20"/></g><g id="shadow"><path class="cls-3" d="M62.06,163.92h684a0,0,0,0,1,0,0v617a4,4,0,0,1-4,4h-676a4,4,0,0,1-4-4v-617A0,0,0,0,1,62.06,163.92Z"/></g><g id="Layer_14" data-name="Layer 14"><path class="cls-3" d="M73.06,152.92h684a0,0,0,0,1,0,0v617a4,4,0,0,1-4,4h-676a4,4,0,0,1-4-4v-617A0,0,0,0,1,73.06,152.92Z"/></g><g id="Layer_15" data-name="Layer 15"><path class="cls-3" d="M73.06,140.92h696a0,0,0,0,1,0,0v617a4,4,0,0,1-4,4h-688a4,4,0,0,1-4-4v-617A0,0,0,0,1,73.06,140.92Z"/></g><g id="page2"><path class="cls-4" d="M55.06,159.92h685a0,0,0,0,1,0,0v613a4,4,0,0,1-4,4h-677a4,4,0,0,1-4-4v-613A0,0,0,0,1,55.06,159.92Z"/></g><g id="Layer_11" data-name="Layer 11"><path class="cls-5" d="M40.06,169.92h711a0,0,0,0,1,0,0v587a4,4,0,0,1-4,4h-703a4,4,0,0,1-4-4v-587A0,0,0,0,1,40.06,169.92Z"/><path class="cls-6" d="M55.06,181.92h685a0,0,0,0,1,0,0v584a4,4,0,0,1-4,4h-677a4,4,0,0,1-4-4v-584A0,0,0,0,1,55.06,181.92Z"/></g><g id="page1"><path class="cls-4" d="M40.06,162.92h711a0,0,0,0,1,0,0v598a4,4,0,0,1-4,4h-703a4,4,0,0,1-4-4v-598A0,0,0,0,1,40.06,162.92Z"/></g><g id="Layer_12" data-name="Layer 12"><path class="cls-6" d="M40.06,172.92h711a0,0,0,0,1,0,0v582a4,4,0,0,1-4,4h-703a4,4,0,0,1-4-4v-582A0,0,0,0,1,40.06,172.92Z"/></g><g id="page3"><path class="cls-4" d="M28.06,166.92h734a0,0,0,0,1,0,0v583a4,4,0,0,1-4,4h-726a4,4,0,0,1-4-4v-583a0,0,0,0,1,0,0Z"/></g><g id="Layer_17" data-name="Layer 17"><path class="cls-7" d="M28.06,84.92h734a0,0,0,0,1,0,0v86a4,4,0,0,1-4,4h-726a4,4,0,0,1-4-4v-86a0,0,0,0,1,0,0Z"/></g><g id="Layer_3" data-name="Layer 3"><path class="cls-8" d="M21.06,55.92h746a20,20,0,0,1,20,20v91a0,0,0,0,1,0,0H1.06a0,0,0,0,1,0,0v-91A20,20,0,0,1,21.06,55.92Z"/></g><g id="Layer_18" data-name="Layer 18"><path class="cls-9" d="M251.3,204c3.17,9.7,9.09,21.79,20.94,29.42a53.11,53.11,0,0,0,18.94,6.87c32,4.75,625,1.42,700.85,1a51.41,51.41,0,0,0,18-5.89c17.31-9.55,23.34-26.41,24.92-31.38v51H251.3V225.58" transform="translate(-248.94 -89.08)"/></g><g id="Layer_6" data-name="Layer 6"><rect class="cls-10" x="641.56" y="1.42" width="35.5" height="105" rx="17.5"/><rect class="cls-10" x="102.23" y="1.42" width="35.5" height="105" rx="17.5"/></g><g id="Layer_9" data-name="Layer 9"><path class="cls-11" d="M352.9,139a29,29,0,0,0,7,4,24.79,24.79,0,0,0,9,2,23.18,23.18,0,0,0,12-3,21.8,21.8,0,0,0,4-3v40c0,5-4.87,15-16,15a16.31,16.31,0,0,1-16-14V139Z" transform="translate(-248.94 -89.08)"/><path class="cls-11" d="M892.2,138.48a29,29,0,0,0,7,4,24.79,24.79,0,0,0,9,2,23.18,23.18,0,0,0,12-3,21.8,21.8,0,0,0,4-3v40c0,5-4.87,15-16,15a16.3,16.3,0,0,1-16-14v-41Z" transform="translate(-248.94 -89.08)"/></g></svg>